<svg viewBox="0 0 24 24" xmlns="http://www.w3.org/2000/svg"><rect width="24" height="24" rx="4" fill="#fff7ed" ry="4"/><path d="M18 8a2 2 0 1 1-4 0 2 2 0 0 1 4 0" fill="#f97316"/><path fill-rule="evenodd" clip-rule="evenodd" d="M11.94 1.25h.12c2.3 0 4.12 0 5.53.19 1.44.2 2.58.6 3.48 1.5.9.89 1.3 2.03 1.49 3.47.19 1.41.19 3.22.19 5.53v.1c0 1.9 0 3.46-.1 4.73a8 8 0 0 1-.8 3.24q-.31.58-.78 1.06a5.7 5.7 0 0 1-3.48 1.49c-1.42.19-3.22.19-5.53.19h-.12c-2.3 0-4.12 0-5.53-.19a5.7 5.7 0 0 1-3.48-1.5 5.4 5.4 0 0 1-1.42-3c-.21-1.2-.25-2.7-.26-4.56v-1.56c0-2.3 0-4.12.19-5.53a5.7 5.7 0 0 1 1.5-3.48 5.7 5.7 0 0 1 3.47-1.5c1.41-.18 3.22-.18 5.53-.18M6.61 2.92C5.33 3.1 4.56 3.43 4 4s-.9 1.34-1.06 2.62c-.18 1.3-.18 3.01-.18 5.39v1.5a27 27 0 0 0 .24 4.3c.18 1.03.5 1.7 1 2.2.57.57 1.34.9 2.62 1.07 1.3.18 3.01.18 5.39.18s4.09 0 5.39-.18c1.27-.17 2.05-.5 2.62-1.07a3 3 0 0 0 .52-.7c.33-.62.52-1.44.62-2.65s.1-2.7.1-4.65c0-2.38 0-4.09-.18-5.39-.17-1.28-.5-2.05-1.06-2.62s-1.34-.9-2.62-1.06c-1.3-.18-3.01-.18-5.39-.18s-4.09 0-5.39.18" fill="#f97316"/><path opacity=".4" d="m20.6 19.15-2.82-2.55a3 3 0 0 0-3.74-.23l-.3.21a2 2 0 0 1-2.56-.22L6.9 12.07a2.3 2.3 0 0 0-3.14-.1l-1 .87v.65c.01 1.88.05 3.25.24 4.3s.5 1.7 1 2.22c.58.57 1.35.9 2.62 1.06 1.3.18 3.01.18 5.39.18s4.09 0 5.39-.18c1.27-.17 2.05-.5 2.62-1.06a3 3 0 0 0 .6-.86" fill="#f97316"/></svg>